# xmcd
#
# Track frame offsets: 
#        150
#        14984
#        35507
#        61005
#        80577
#        98777
#        114064
#        138361
#        156958
#        175294
#        198467
#
# Disc length: 2908 seconds
#
# Revision: 0
# Processed by: cddbd v1.5.1PL0 Copyright (c) Steve Scherf et al.
# Submitted via: ExactAudioCopy v0.95a5
#
DISCID=8e0b5a0b
DTITLE=Jan Smith - Tin Heart
DYEAR=2002
DGENRE=Bluegrass
TTITLE0=Your Mamma Don't Care
TTITLE1=Gorham Mountain
TTITLE2=Tin Heart
TTITLE3=Ionesco's Chair
TTITLE4=Dalmation
TTITLE5=Rum in My Morning Coffee
TTITLE6=Dime on the Floor
TTITLE7=Every Dish in the House
TTITLE8=All Around This Town
TTITLE9=Motion
TTITLE10=Fishermen
EXTD=
EXTT0=
EXTT1=
EXTT2=
EXTT3=
EXTT4=
EXTT5=
EXTT6=
EXTT7=
EXTT8=
EXTT9=
EXTT10=
PLAYORDER=
